<svg xmlns="http://www.w3.org/2000/svg" xmlns:xlink="http://www.w3.org/1999/xlink" version="1.1" x="0px" y="0px" viewBox="0 0 2000 2500" enable-background="new 0 0 2000 2000" xml:space="preserve"><metadata><?xpacket begin="&#65279;" id="W5M0MpCehiHzreSzNTczkc9d"?><x:xmpmeta xmlns:x="adobe:ns:meta/" x:xmptk="Adobe XMP Core 5.3-c011 66.145661, 2012/02/06-14:56:27        "/><?xpacket end="w"?></metadata><g><path d="M837.759,971.889c43.171,43.173,101.177,67.196,162.239,67.196s119.066-24.024,162.234-67.196   c43.174-43.168,67.199-101.175,67.199-162.233c0-61.06-24.025-119.065-67.199-162.235c-43.168-43.172-101.17-67.197-162.234-67.198   c-61.063,0-119.068,24.026-162.239,67.198c-43.172,43.171-67.193,101.175-67.193,162.235   C770.565,870.713,794.591,928.721,837.759,971.889z"/><path d="M616.719,875.495c20.273,0,40.496-2.66,60.063-7.963c12.757-3.45,25.196-8.021,37.157-13.627   c-2.246-14.64-3.365-29.438-3.365-44.25c0-77.021,30.322-150.198,84.772-204.647c11.948-11.951,24.938-22.849,38.774-32.543   c-14.475-42.825-41.263-80.339-77.064-108.004c-40.248-31.1-89.479-47.825-140.338-47.825c-61.059,0-119.063,24.023-162.232,67.195   c-43.174,43.172-67.195,101.174-67.195,162.237c0,61.061,24.021,119.063,67.195,162.231   C497.658,851.473,555.662,875.495,616.719,875.495z"/><path d="M1289.42,809.654c0,14.813-1.119,29.61-3.365,44.25c11.967,5.604,24.4,10.176,37.158,13.627   c19.564,5.303,39.787,7.963,60.063,7.963c61.063,0,119.063-24.023,162.232-67.195c43.176-43.168,67.195-101.172,67.195-162.233   c0-61.063-24.02-119.063-67.195-162.235c-43.172-43.172-101.17-67.195-162.232-67.195c-50.857,0-100.09,16.728-140.338,47.825   c-35.803,27.665-62.59,65.179-77.064,108.004c13.838,9.695,26.826,20.593,38.775,32.543   C1259.1,659.456,1289.42,732.636,1289.42,809.654z"/><path d="M698.798,1113.149c45.681-26.938,97.169-45.538,148.919-57.336c-18.979-11.768-36.572-25.709-52.368-41.511   c-19.442-19.441-36.075-41.598-49.296-65.705c-18.678-3.922-37.558-6.936-56.521-9.078c-24.157-2.729-48.496-4.034-72.812-4.034   c-91.041,0-191.535,18.941-270.731,65.646c-50.854,29.991-103.687,79.229-103.687,142.854v165.902   c0,32.66,68.14,59.797,92.333,68.547c33.959,12.281,69.886,20.797,105.422,26.994c41.414,7.226,83.525,11.429,125.528,13.307   v-111.159C565.586,1221.088,628.295,1154.729,698.798,1113.149z"/><path d="M1270.734,1164.722c-79.197-46.708-179.697-65.646-270.734-65.646s-191.539,18.938-270.733,65.646   c-50.853,29.987-103.688,79.229-103.688,142.854v165.905c0,34.136,72.985,61.937,98.196,70.657   c39.713,13.738,82.033,22.656,123.576,28.684c50.424,7.316,101.711,10.543,152.648,10.543c50.936,0,102.223-3.227,152.646-10.543   c41.539-6.029,83.861-14.947,123.582-28.684c25.207-8.72,98.191-36.521,98.191-70.657v-165.905   C1374.42,1243.95,1321.586,1194.709,1270.734,1164.722z"/><path d="M1654.01,1001.134c-79.197-46.703-179.697-65.646-270.734-65.646c-24.313,0-48.646,1.305-72.809,4.035   c-18.969,2.141-37.846,5.153-56.523,9.076c-13.221,24.107-29.854,46.264-49.295,65.705c-15.801,15.8-33.395,29.743-52.369,41.512   c51.75,11.797,103.236,30.397,148.914,57.334c70.508,41.582,133.217,107.938,133.217,194.428v111.158   c41.998-1.878,84.111-6.08,125.523-13.305c35.543-6.197,71.467-14.713,105.426-26.993c24.197-8.75,92.338-35.888,92.338-68.548   v-165.902C1757.697,1080.361,1704.863,1031.125,1654.01,1001.134z"/></g><text x="0" y="2015" fill="#000000" font-size="5px" font-weight="bold" font-family="'Helvetica Neue', Helvetica, Arial-Unicode, Arial, Sans-serif">Created by Adi Waluyo Noto Carito</text><text x="0" y="2020" fill="#000000" font-size="5px" font-weight="bold" font-family="'Helvetica Neue', Helvetica, Arial-Unicode, Arial, Sans-serif">from the Noun Project</text></svg>